<svg xmlns="http://www.w3.org/2000/svg" width="15" height="32" viewBox="0 0 15 32"><style>.a{fill:#828282;}</style><path d="M7 24V28H4c-1.1 0-2 0.9-2 2v1.5c0 0.3 0.2 0.5 0.5 0.5h10c0.3 0 0.5-0.2 0.5-0.5v-1.4c0-1.2-0.9-2.1-2-2.1H8v-4c4-0.3 7.1-3.6 7.1-7.6v-1.9c0-0.3-0.2-0.5-0.5-0.5S14 14.3 14 14.6v1.9c0 3.6-2.9 6.5-6.5 6.5s-6.5-2.9-6.5-6.5v-1.9c0-0.3-0.2-0.5-0.5-0.5S0 14.3 0 14.6v1.9C0 20.4 3.1 23.7 7 24zM12 30.1V31h-9v-1c0-0.6 0.4-1 1-1h7C11.6 29 12 29.5 12 30.1z" class="a"/><path d="M7.5 0C5 0 3 2 3 4.6v11.9c0 2.5 2 4.6 4.5 4.6s4.5-2.1 4.5-4.6V4.6C12.1 2 10 0 7.5 0zM11 16.4c0 1.9-1.6 3.5-3.5 3.5S4 18.4 4 16.4V4.6c0-1.9 1.6-3.5 3.5-3.5S11 2.6 11 4.6V16.4z" class="a"/></svg>